<svg width="460" height="324" viewBox="0 0 460 324" fill="none" xmlns="http://www.w3.org/2000/svg">
<g clip-path="url(#clip0_129_34)">
<path d="M267.949 57.1174C276.571 57.1174 283.559 50.3491 283.559 42C283.559 33.6509 276.571 26.8826 267.949 26.8826C259.328 26.8826 252.339 33.6509 252.339 42C252.339 50.3491 259.328 57.1174 267.949 57.1174Z" fill="#F2F2F2"/>
<path d="M389.042 281.477C412.244 264.362 423.327 235.602 416.389 208.167C416.216 207.485 416.034 206.805 415.843 206.126C411.243 189.841 399.864 174.363 383.279 169.16C369.353 164.79 354.153 168.15 339.625 166.413C311.106 163.002 288.995 140.655 273.438 117.258C257.881 93.8601 245.924 67.6699 225.252 48.3401C191.177 16.4782 135.591 9.61828 93.3431 30.358C51.0949 51.0978 24.1832 97.1106 25.3309 142.968C26.4787 188.826 54.5896 232.669 95.4136 255.93C110.411 264.476 127.756 270.529 145.019 268.411C159.997 266.573 173.607 258.779 188.514 256.465C211.953 252.827 235.242 263.09 255.515 275.049C275.787 287.008 295.369 301.184 318.406 306.728C340.775 312.112 368.488 296.638 389.042 281.477Z" fill="#F2F2F2"/>
<path d="M355.705 31.321C355.197 30.9926 354.682 30.6812 354.173 30.3641C339.471 21.2576 323.711 13.8595 307.222 8.32279L303.398 59.4034H279.159V0.866222C277.633 0.560485 276.096 0.271735 274.558 -3.05176e-05V59.4034H245.753C229.896 59.4034 214.688 53.3029 203.475 42.444C192.262 31.5851 185.963 16.8572 185.963 1.50041V1.50036C184.42 1.82308 182.888 2.16845 181.356 2.53646V59.4034H157.895L154.253 10.6951C137.307 16.9889 121.219 25.2656 106.348 35.3408C106.091 35.5107 105.834 35.6862 105.582 35.8561C104.29 36.7336 103.016 37.6282 101.747 38.5341V233.407H170.891L169.669 217.016L162.946 127.022H298.341L291.618 217.016L290.396 233.407H358.774V33.2913C357.757 32.6232 356.734 31.9664 355.705 31.321ZM181.356 112.16H161.835L158.228 63.8649H181.356V112.16ZM274.558 112.16H241.772V111.203C241.772 110.743 241.679 110.288 241.497 109.863C241.315 109.438 241.048 109.052 240.712 108.727C240.376 108.402 239.977 108.144 239.538 107.969C239.099 107.793 238.628 107.703 238.153 107.704H223.9C223.425 107.704 222.956 107.794 222.517 107.97C222.079 108.146 221.68 108.404 221.345 108.729C221.009 109.053 220.743 109.439 220.562 109.864C220.38 110.288 220.287 110.744 220.287 111.203V112.16H185.963V63.8649H274.558V112.16ZM279.159 112.16V63.8649H303.065L299.458 112.16H279.159Z" fill="#3F3D56"/>
<path d="M0 245.886C5.07885 251.714 10.5722 257.191 16.4399 262.277L443.56 262.843C449.428 257.757 454.921 252.28 460 246.452L0 245.886Z" fill="#3F3D56"/>
<path d="M289.644 193.402V241.925C289.645 242.544 289.898 243.137 290.35 243.574C290.801 244.011 291.414 244.257 292.052 244.258H366.303C366.942 244.257 367.554 244.011 368.005 243.574C368.457 243.137 368.711 242.544 368.711 241.925V193.402C368.71 192.784 368.455 192.192 368.004 191.755C367.553 191.318 366.941 191.073 366.303 191.072H292.052C291.414 191.073 290.803 191.318 290.351 191.755C289.9 192.192 289.646 192.784 289.644 193.402Z" fill="#3F3D56"/>
<path d="M291.386 194.005V241.327C291.387 241.657 291.522 241.974 291.764 242.208C292.005 242.441 292.332 242.573 292.673 242.573H365.685C366.026 242.573 366.353 242.441 366.594 242.208C366.836 241.974 366.971 241.657 366.972 241.327V194.005C366.972 193.675 366.836 193.357 366.595 193.123C366.354 192.889 366.027 192.757 365.685 192.756H292.673C292.331 192.757 292.004 192.889 291.763 193.123C291.522 193.357 291.386 193.675 291.386 194.005Z" fill="#6C63FF"/>
<path d="M288.091 251.389C288.227 251.554 288.4 251.687 288.597 251.778C288.794 251.87 289.009 251.916 289.227 251.915H368.733C368.95 251.915 369.165 251.868 369.361 251.777C369.557 251.686 369.73 251.555 369.867 251.391C370.004 251.227 370.102 251.036 370.153 250.832C370.204 250.627 370.207 250.414 370.163 250.208L368.929 244.531C368.877 244.299 368.767 244.084 368.608 243.904C368.449 243.724 368.246 243.586 368.018 243.501C367.852 243.439 367.676 243.406 367.498 243.407H290.457C290.279 243.406 290.103 243.439 289.938 243.501C289.709 243.586 289.506 243.724 289.347 243.904C289.188 244.084 289.078 244.299 289.027 244.531L287.792 250.208C287.749 250.414 287.753 250.627 287.804 250.831C287.856 251.035 287.954 251.226 288.091 251.389Z" fill="#2F2E41"/>
<path d="M364.77 245.852H366.648C366.806 245.852 366.934 245.728 366.934 245.575V244.705C366.934 244.553 366.806 244.429 366.648 244.429H364.77C364.613 244.429 364.485 244.553 364.485 244.705V245.575C364.485 245.728 364.613 245.852 364.77 245.852Z" fill="#3F3D56"/>
<path d="M359.873 245.852H361.751C361.909 245.852 362.036 245.728 362.036 245.575V244.705C362.036 244.553 361.909 244.429 361.751 244.429H359.873C359.715 244.429 359.588 244.553 359.588 244.705V245.575C359.588 245.728 359.715 245.852 359.873 245.852Z" fill="#3F3D56"/>
<path d="M354.976 245.852H356.853C357.011 245.852 357.139 245.728 357.139 245.575V244.705C357.139 244.553 357.011 244.429 356.853 244.429H354.976C354.818 244.429 354.69 244.553 354.69 244.705V245.575C354.69 245.728 354.818 245.852 354.976 245.852Z" fill="#3F3D56"/>
<path d="M350.078 245.852H351.956C352.114 245.852 352.241 245.728 352.241 245.575V244.705C352.241 244.553 352.114 244.429 351.956 244.429H350.078C349.921 244.429 349.793 244.553 349.793 244.705V245.575C349.793 245.728 349.921 245.852 350.078 245.852Z" fill="#3F3D56"/>
<path d="M345.181 245.852H347.059C347.216 245.852 347.344 245.728 347.344 245.575V244.705C347.344 244.553 347.216 244.429 347.059 244.429H345.181C345.023 244.429 344.895 244.553 344.895 244.705V245.575C344.895 245.728 345.023 245.852 345.181 245.852Z" fill="#3F3D56"/>
<path d="M340.283 245.852H342.161C342.319 245.852 342.447 245.728 342.447 245.575V244.705C342.447 244.553 342.319 244.429 342.161 244.429H340.283C340.126 244.429 339.998 244.553 339.998 244.705V245.575C339.998 245.728 340.126 245.852 340.283 245.852Z" fill="#3F3D56"/>
<path d="M335.386 245.852H337.264C337.421 245.852 337.549 245.728 337.549 245.575V244.705C337.549 244.553 337.421 244.429 337.264 244.429H335.386C335.228 244.429 335.1 244.553 335.1 244.705V245.575C335.1 245.728 335.228 245.852 335.386 245.852Z" fill="#3F3D56"/>
<path d="M330.488 245.852H332.366C332.524 245.852 332.652 245.728 332.652 245.575V244.705C332.652 244.553 332.524 244.429 332.366 244.429H330.488C330.331 244.429 330.203 244.553 330.203 244.705V245.575C330.203 245.728 330.331 245.852 330.488 245.852Z" fill="#3F3D56"/>
<path d="M325.591 245.852H327.469C327.626 245.852 327.754 245.728 327.754 245.575V244.705C327.754 244.553 327.626 244.429 327.469 244.429H325.591C325.433 244.429 325.305 244.553 325.305 244.705V245.575C325.305 245.728 325.433 245.852 325.591 245.852Z" fill="#3F3D56"/>
<path d="M320.693 245.852H322.571C322.729 245.852 322.857 245.728 322.857 245.575V244.705C322.857 244.553 322.729 244.429 322.571 244.429H320.693C320.536 244.429 320.408 244.553 320.408 244.705V245.575C320.408 245.728 320.536 245.852 320.693 245.852Z" fill="#3F3D56"/>
<path d="M315.796 245.852H317.674C317.832 245.852 317.959 245.728 317.959 245.575V244.705C317.959 244.553 317.832 244.429 317.674 244.429H315.796C315.638 244.429 315.511 244.553 315.511 244.705V245.575C315.511 245.728 315.638 245.852 315.796 245.852Z" fill="#3F3D56"/>
<path d="M310.899 245.852H312.776C312.934 245.852 313.062 245.728 313.062 245.575V244.705C313.062 244.553 312.934 244.429 312.776 244.429H310.899C310.741 244.429 310.613 244.553 310.613 244.705V245.575C310.613 245.728 310.741 245.852 310.899 245.852Z" fill="#3F3D56"/>
<path d="M306.001 245.852H307.879C308.037 245.852 308.164 245.728 308.164 245.575V244.705C308.164 244.553 308.037 244.429 307.879 244.429H306.001C305.843 244.429 305.716 244.553 305.716 244.705V245.575C305.716 245.728 305.843 245.852 306.001 245.852Z" fill="#3F3D56"/>
<path d="M301.104 245.852H302.982C303.139 245.852 303.267 245.728 303.267 245.575V244.705C303.267 244.553 303.139 244.429 302.982 244.429H301.104C300.946 244.429 300.818 244.553 300.818 244.705V245.575C300.818 245.728 300.946 245.852 301.104 245.852Z" fill="#3F3D56"/>
<path d="M296.206 245.852H298.084C298.242 245.852 298.37 245.728 298.37 245.575V244.705C298.37 244.553 298.242 244.429 298.084 244.429H296.206C296.049 244.429 295.921 244.553 295.921 244.705V245.575C295.921 245.728 296.049 245.852 296.206 245.852Z" fill="#3F3D56"/>
<path d="M291.309 245.852H293.187C293.344 245.852 293.472 245.728 293.472 245.575V244.705C293.472 244.553 293.344 244.429 293.187 244.429H291.309C291.151 244.429 291.023 244.553 291.023 244.705V245.575C291.023 245.728 291.151 245.852 291.309 245.852Z" fill="#3F3D56"/>
<path d="M364.828 248.223H366.706C366.864 248.223 366.992 248.1 366.992 247.947V247.077C366.992 246.924 366.864 246.8 366.706 246.8H364.828C364.671 246.8 364.543 246.924 364.543 247.077V247.947C364.543 248.1 364.671 248.223 364.828 248.223Z" fill="#3F3D56"/>
<path d="M359.931 248.223H361.809C361.966 248.223 362.094 248.1 362.094 247.947V247.077C362.094 246.924 361.966 246.8 361.809 246.8H359.931C359.773 246.8 359.646 246.924 359.646 247.077V247.947C359.646 248.1 359.773 248.223 359.931 248.223Z" fill="#3F3D56"/>
<path d="M355.033 248.223H356.911C357.069 248.223 357.197 248.1 357.197 247.947V247.077C357.197 246.924 357.069 246.8 356.911 246.8H355.033C354.876 246.8 354.748 246.924 354.748 247.077V247.947C354.748 248.1 354.876 248.223 355.033 248.223Z" fill="#3F3D56"/>
<path d="M350.136 248.223H352.014C352.172 248.223 352.299 248.1 352.299 247.947V247.077C352.299 246.924 352.172 246.8 352.014 246.8H350.136C349.978 246.8 349.851 246.924 349.851 247.077V247.947C349.851 248.1 349.978 248.223 350.136 248.223Z" fill="#3F3D56"/>
<path d="M345.239 248.223H347.116C347.274 248.223 347.402 248.1 347.402 247.947V247.077C347.402 246.924 347.274 246.8 347.116 246.8H345.239C345.081 246.8 344.953 246.924 344.953 247.077V247.947C344.953 248.1 345.081 248.223 345.239 248.223Z" fill="#3F3D56"/>
<path d="M340.341 248.223H342.219C342.377 248.223 342.504 248.1 342.504 247.947V247.077C342.504 246.924 342.377 246.8 342.219 246.8H340.341C340.183 246.8 340.056 246.924 340.056 247.077V247.947C340.056 248.1 340.183 248.223 340.341 248.223Z" fill="#3F3D56"/>
<path d="M335.444 248.223H337.322C337.479 248.223 337.607 248.1 337.607 247.947V247.077C337.607 246.924 337.479 246.8 337.322 246.8H335.444C335.286 246.8 335.158 246.924 335.158 247.077V247.947C335.158 248.1 335.286 248.223 335.444 248.223Z" fill="#3F3D56"/>
<path d="M330.546 248.223H332.424C332.582 248.223 332.709 248.1 332.709 247.947V247.077C332.709 246.924 332.582 246.8 332.424 246.8H330.546C330.389 246.8 330.261 246.924 330.261 247.077V247.947C330.261 248.1 330.389 248.223 330.546 248.223Z" fill="#3F3D56"/>
<path d="M325.649 248.223H327.527C327.684 248.223 327.812 248.1 327.812 247.947V247.077C327.812 246.924 327.684 246.8 327.527 246.8H325.649C325.491 246.8 325.363 246.924 325.363 247.077V247.947C325.363 248.1 325.491 248.223 325.649 248.223Z" fill="#3F3D56"/>
<path d="M320.751 248.223H322.629C322.787 248.223 322.915 248.1 322.915 247.947V247.077C322.915 246.924 322.787 246.8 322.629 246.8H320.751C320.594 246.8 320.466 246.924 320.466 247.077V247.947C320.466 248.1 320.594 248.223 320.751 248.223Z" fill="#3F3D56"/>
<path d="M315.854 248.223H317.732C317.889 248.223 318.017 248.1 318.017 247.947V247.077C318.017 246.924 317.889 246.8 317.732 246.8H315.854C315.696 246.8 315.568 246.924 315.568 247.077V247.947C315.568 248.1 315.696 248.223 315.854 248.223Z" fill="#3F3D56"/>
<path d="M310.956 248.223H312.834C312.992 248.223 313.12 248.1 313.12 247.947V247.077C313.12 246.924 312.992 246.8 312.834 246.8H310.956C310.799 246.8 310.671 246.924 310.671 247.077V247.947C310.671 248.1 310.799 248.223 310.956 248.223Z" fill="#3F3D56"/>
<path d="M306.059 248.223H307.937C308.095 248.223 308.222 248.1 308.222 247.947V247.077C308.222 246.924 308.095 246.8 307.937 246.8H306.059C305.901 246.8 305.774 246.924 305.774 247.077V247.947C305.774 248.1 305.901 248.223 306.059 248.223Z" fill="#3F3D56"/>
<path d="M301.162 248.223H303.039C303.197 248.223 303.325 248.1 303.325 247.947V247.077C303.325 246.924 303.197 246.8 303.039 246.8H301.162C301.004 246.8 300.876 246.924 300.876 247.077V247.947C300.876 248.1 301.004 248.223 301.162 248.223Z" fill="#3F3D56"/>
<path d="M296.264 248.223H298.142C298.3 248.223 298.427 248.1 298.427 247.947V247.077C298.427 246.924 298.3 246.8 298.142 246.8H296.264C296.106 246.8 295.979 246.924 295.979 247.077V247.947C295.979 248.1 296.106 248.223 296.264 248.223Z" fill="#3F3D56"/>
<path d="M291.367 248.223H293.245C293.402 248.223 293.53 248.1 293.53 247.947V247.077C293.53 246.924 293.402 246.8 293.245 246.8H291.367C291.209 246.8 291.081 246.924 291.081 247.077V247.947C291.081 248.1 291.209 248.223 291.367 248.223Z" fill="#3F3D56"/>
<path d="M324.18 251.069H343.199C343.356 251.069 343.484 250.945 343.484 250.793V249.923C343.484 249.77 343.356 249.646 343.199 249.646H324.18C324.022 249.646 323.894 249.77 323.894 249.923V250.793C323.894 250.945 324.022 251.069 324.18 251.069Z" fill="#3F3D56"/>
<path d="M304.03 203.109H302.367C301.863 203.109 301.454 203.505 301.454 203.993C301.454 204.481 301.863 204.877 302.367 204.877H304.03C304.534 204.877 304.942 204.481 304.942 203.993C304.942 203.505 304.534 203.109 304.03 203.109Z" fill="white"/>
<path d="M323.043 203.109H321.381C320.877 203.109 320.468 203.505 320.468 203.993C320.468 204.481 320.877 204.877 321.381 204.877H323.043C323.548 204.877 323.956 204.481 323.956 203.993C323.956 203.505 323.548 203.109 323.043 203.109Z" fill="white"/>
<path d="M328.431 203.109H326.768C326.264 203.109 325.856 203.505 325.856 203.993C325.856 204.481 326.264 204.877 326.768 204.877H328.431C328.935 204.877 329.343 204.481 329.343 203.993C329.343 203.505 328.935 203.109 328.431 203.109Z" fill="white"/>
<path d="M317.872 202.962H307.539C307.035 202.962 306.626 203.358 306.626 203.846C306.626 204.334 307.035 204.73 307.539 204.73H317.872C318.376 204.73 318.784 204.334 318.784 203.846C318.784 203.358 318.376 202.962 317.872 202.962Z" fill="white"/>
<path d="M343.224 202.962H332.891C332.387 202.962 331.978 203.358 331.978 203.846C331.978 204.334 332.387 204.73 332.891 204.73H343.224C343.728 204.73 344.136 204.334 344.136 203.846C344.136 203.358 343.728 202.962 343.224 202.962Z" fill="white"/>
<path d="M309.1 207.099H307.437C306.933 207.099 306.525 207.495 306.525 207.983C306.525 208.471 306.933 208.867 307.437 208.867H309.1C309.604 208.867 310.013 208.471 310.013 207.983C310.013 207.495 309.604 207.099 309.1 207.099Z" fill="white"/>
<path d="M328.114 207.099H326.451C325.947 207.099 325.539 207.495 325.539 207.983C325.539 208.471 325.947 208.867 326.451 208.867H328.114C328.618 208.867 329.027 208.471 329.027 207.983C329.027 207.495 328.618 207.099 328.114 207.099Z" fill="white"/>
<path d="M333.501 207.099H331.839C331.335 207.099 330.926 207.495 330.926 207.983C330.926 208.471 331.335 208.867 331.839 208.867H333.501C334.005 208.867 334.414 208.471 334.414 207.983C334.414 207.495 334.005 207.099 333.501 207.099Z" fill="white"/>
<path d="M322.942 206.952H312.609C312.105 206.952 311.697 207.347 311.697 207.835C311.697 208.324 312.105 208.719 312.609 208.719H322.942C323.446 208.719 323.855 208.324 323.855 207.835C323.855 207.347 323.446 206.952 322.942 206.952Z" fill="white"/>
<path d="M348.294 206.952H337.961C337.457 206.952 337.049 207.347 337.049 207.835C337.049 208.324 337.457 208.719 337.961 208.719H348.294C348.798 208.719 349.207 208.324 349.207 207.835C349.207 207.347 348.798 206.952 348.294 206.952Z" fill="white"/>
<path d="M314.17 211.089H312.508C312.004 211.089 311.595 211.484 311.595 211.972C311.595 212.46 312.004 212.856 312.508 212.856H314.17C314.674 212.856 315.083 212.46 315.083 211.972C315.083 211.484 314.674 211.089 314.17 211.089Z" fill="white"/>
<path d="M333.184 211.089H331.522C331.018 211.089 330.609 211.484 330.609 211.972C330.609 212.46 331.018 212.856 331.522 212.856H333.184C333.688 212.856 334.097 212.46 334.097 211.972C334.097 211.484 333.688 211.089 333.184 211.089Z" fill="white"/>
<path d="M338.572 211.089H336.909C336.405 211.089 335.996 211.484 335.996 211.972C335.996 212.46 336.405 212.856 336.909 212.856H338.572C339.076 212.856 339.484 212.46 339.484 211.972C339.484 211.484 339.076 211.089 338.572 211.089Z" fill="white"/>
<path d="M328.012 210.941H317.68C317.176 210.941 316.767 211.337 316.767 211.825C316.767 212.313 317.176 212.709 317.68 212.709H328.012C328.516 212.709 328.925 212.313 328.925 211.825C328.925 211.337 328.516 210.941 328.012 210.941Z" fill="white"/>
<path d="M353.364 210.941H343.032C342.528 210.941 342.119 211.337 342.119 211.825C342.119 212.313 342.528 212.709 343.032 212.709H353.364C353.868 212.709 354.277 212.313 354.277 211.825C354.277 211.337 353.868 210.941 353.364 210.941Z" fill="white"/>
<path d="M319.241 215.078H317.578C317.074 215.078 316.666 215.474 316.666 215.962C316.666 216.45 317.074 216.846 317.578 216.846H319.241C319.745 216.846 320.153 216.45 320.153 215.962C320.153 215.474 319.745 215.078 319.241 215.078Z" fill="white"/>
<path d="M338.255 215.078H336.592C336.088 215.078 335.68 215.474 335.68 215.962C335.68 216.45 336.088 216.846 336.592 216.846H338.255C338.759 216.846 339.167 216.45 339.167 215.962C339.167 215.474 338.759 215.078 338.255 215.078Z" fill="white"/>
<path d="M343.642 215.078H341.98C341.475 215.078 341.067 215.474 341.067 215.962C341.067 216.45 341.475 216.846 341.98 216.846H343.642C344.146 216.846 344.555 216.45 344.555 215.962C344.555 215.474 344.146 215.078 343.642 215.078Z" fill="white"/>
<path d="M333.083 214.931H322.75C322.246 214.931 321.837 215.327 321.837 215.815C321.837 216.303 322.246 216.699 322.75 216.699H333.083C333.587 216.699 333.995 216.303 333.995 215.815C333.995 215.327 333.587 214.931 333.083 214.931Z" fill="white"/>
<path d="M323.043 230.943H321.381C320.877 230.943 320.468 231.338 320.468 231.827C320.468 232.315 320.877 232.71 321.381 232.71H323.043C323.548 232.71 323.956 232.315 323.956 231.827C323.956 231.338 323.548 230.943 323.043 230.943Z" fill="white"/>
<path d="M328.431 230.943H326.768C326.264 230.943 325.856 231.338 325.856 231.827C325.856 232.315 326.264 232.71 326.768 232.71H328.431C328.935 232.71 329.343 232.315 329.343 231.827C329.343 231.338 328.935 230.943 328.431 230.943Z" fill="white"/>
<path d="M343.224 231.09H332.891C332.387 231.09 331.978 231.486 331.978 231.974C331.978 232.462 332.387 232.858 332.891 232.858H343.224C343.728 232.858 344.136 232.462 344.136 231.974C344.136 231.486 343.728 231.09 343.224 231.09Z" fill="white"/>
<path d="M304.03 230.943H302.367C301.863 230.943 301.454 231.338 301.454 231.827C301.454 232.315 301.863 232.71 302.367 232.71H304.03C304.534 232.71 304.942 232.315 304.942 231.827C304.942 231.338 304.534 230.943 304.03 230.943Z" fill="white"/>
<path d="M317.872 231.09H307.539C307.035 231.09 306.626 231.486 306.626 231.974C306.626 232.462 307.035 232.858 307.539 232.858H317.872C318.376 232.858 318.784 232.462 318.784 231.974C318.784 231.486 318.376 231.09 317.872 231.09Z" fill="white"/>
<path d="M309.1 226.953H307.437C306.933 226.953 306.525 227.349 306.525 227.837C306.525 228.325 306.933 228.721 307.437 228.721H309.1C309.604 228.721 310.013 228.325 310.013 227.837C310.013 227.349 309.604 226.953 309.1 226.953Z" fill="white"/>
<path d="M328.114 226.953H326.451C325.947 226.953 325.539 227.349 325.539 227.837C325.539 228.325 325.947 228.721 326.451 228.721H328.114C328.618 228.721 329.027 228.325 329.027 227.837C329.027 227.349 328.618 226.953 328.114 226.953Z" fill="white"/>
<path d="M333.501 226.953H331.839C331.335 226.953 330.926 227.349 330.926 227.837C330.926 228.325 331.335 228.721 331.839 228.721H333.501C334.005 228.721 334.414 228.325 334.414 227.837C334.414 227.349 334.005 226.953 333.501 226.953Z" fill="white"/>
<path d="M322.942 227.1H312.609C312.105 227.1 311.697 227.496 311.697 227.984C311.697 228.472 312.105 228.868 312.609 228.868H322.942C323.446 228.868 323.855 228.472 323.855 227.984C323.855 227.496 323.446 227.1 322.942 227.1Z" fill="white"/>
<path d="M314.17 222.963H312.508C312.004 222.963 311.595 223.359 311.595 223.847C311.595 224.335 312.004 224.731 312.508 224.731H314.17C314.674 224.731 315.083 224.335 315.083 223.847C315.083 223.359 314.674 222.963 314.17 222.963Z" fill="white"/>
<path d="M333.184 222.963H331.522C331.018 222.963 330.609 223.359 330.609 223.847C330.609 224.335 331.018 224.731 331.522 224.731H333.184C333.688 224.731 334.097 224.335 334.097 223.847C334.097 223.359 333.688 222.963 333.184 222.963Z" fill="white"/>
<path d="M338.572 222.963H336.909C336.405 222.963 335.996 223.359 335.996 223.847C335.996 224.335 336.405 224.731 336.909 224.731H338.572C339.076 224.731 339.484 224.335 339.484 223.847C339.484 223.359 339.076 222.963 338.572 222.963Z" fill="white"/>
<path d="M328.012 223.111H317.68C317.176 223.111 316.767 223.507 316.767 223.995C316.767 224.483 317.176 224.879 317.68 224.879H328.012C328.516 224.879 328.925 224.483 328.925 223.995C328.925 223.507 328.516 223.111 328.012 223.111Z" fill="white"/>
<path d="M319.241 218.974H317.578C317.074 218.974 316.666 219.369 316.666 219.858C316.666 220.346 317.074 220.741 317.578 220.741H319.241C319.745 220.741 320.153 220.346 320.153 219.858C320.153 219.369 319.745 218.974 319.241 218.974Z" fill="white"/>
<path d="M338.255 218.974H336.592C336.088 218.974 335.68 219.369 335.68 219.858C335.68 220.346 336.088 220.741 336.592 220.741H338.255C338.759 220.741 339.167 220.346 339.167 219.858C339.167 219.369 338.759 218.974 338.255 218.974Z" fill="white"/>
<path d="M343.642 218.974H341.98C341.475 218.974 341.067 219.369 341.067 219.858C341.067 220.346 341.475 220.741 341.98 220.741H343.642C344.146 220.741 344.555 220.346 344.555 219.858C344.555 219.369 344.146 218.974 343.642 218.974Z" fill="white"/>
<path d="M333.083 219.121H322.75C322.246 219.121 321.837 219.517 321.837 220.005C321.837 220.493 322.246 220.889 322.75 220.889H333.083C333.587 220.889 333.995 220.493 333.995 220.005C333.995 219.517 333.587 219.121 333.083 219.121Z" fill="white"/>
<path d="M295.191 277.7L287.386 265.753L311.883 246.841L321.995 235.992C323.308 234.583 324.981 233.532 326.845 232.945C328.71 232.357 330.701 232.254 332.619 232.646C334.538 233.037 336.317 233.909 337.778 235.175C339.239 236.44 340.332 238.055 340.947 239.858C341.859 242.53 341.663 245.44 340.401 247.974C339.139 250.508 336.909 252.469 334.183 253.441L318.194 259.146L295.191 277.7Z" fill="#FFB6B6"/>
<path d="M112.068 191.074V249.142H154.074V191.074C154.075 190.657 153.937 190.25 153.681 189.914C153.426 189.577 153.065 189.329 152.653 189.206C152.459 189.144 152.256 189.113 152.051 189.115H114.097C113.831 189.115 113.567 189.165 113.321 189.263C113.075 189.362 112.852 189.506 112.663 189.688C112.475 189.87 112.325 190.086 112.223 190.324C112.121 190.562 112.068 190.817 112.068 191.074ZM128.461 211.026C128.472 209.882 128.949 208.787 129.789 207.982C130.629 207.176 131.763 206.724 132.945 206.724C134.127 206.724 135.262 207.176 136.101 207.982C136.941 208.787 137.418 209.882 137.429 211.026V217.764C137.423 218.912 136.948 220.011 136.108 220.82C135.268 221.63 134.131 222.084 132.945 222.084C131.76 222.084 130.623 221.63 129.783 220.82C128.942 220.011 128.467 218.912 128.461 217.764V211.026Z" fill="#2F2E41"/>
<path d="M111.939 247.285V252.884C111.94 253.174 112.059 253.452 112.271 253.658C112.482 253.863 112.768 253.98 113.068 253.982H153.074C153.374 253.981 153.661 253.865 153.872 253.659C154.084 253.453 154.203 253.174 154.202 252.884V247.285H111.939Z" fill="#3F3D56"/>
<path d="M45.9871 103.589V209.611C45.9882 210.962 46.5429 212.258 47.5295 213.213C48.516 214.168 49.8537 214.706 51.2488 214.707H213.484C214.879 214.706 216.217 214.168 217.204 213.213C218.19 212.258 218.745 210.962 218.746 209.611V103.589C218.743 102.239 218.187 100.945 217.201 99.9909C216.214 99.0369 214.878 98.5003 213.484 98.4986H51.2488C49.8549 98.5003 48.5185 99.0369 47.5323 99.9909C46.546 100.945 45.9904 102.239 45.9871 103.589Z" fill="#3F3D56"/>
<path d="M49.7931 104.908V208.303C49.7944 209.025 50.091 209.717 50.6181 210.227C51.1452 210.738 51.8598 211.025 52.6052 211.026H212.134C212.879 211.025 213.594 210.738 214.121 210.227C214.648 209.717 214.944 209.025 214.946 208.303V104.908C214.946 104.185 214.65 103.492 214.122 102.98C213.595 102.468 212.88 102.18 212.134 102.179H52.6052C51.8588 102.18 51.1436 102.468 50.6165 102.98C50.0893 103.492 49.7932 104.185 49.7931 104.908Z" fill="white"/>
<path d="M79.3988 253.603C79.5612 253.8 79.7676 253.959 80.0025 254.068C80.2374 254.177 80.4948 254.233 80.7552 254.232H175.664C175.924 254.231 176.18 254.175 176.414 254.067C176.649 253.958 176.855 253.801 177.018 253.606C177.182 253.41 177.299 253.182 177.36 252.938C177.421 252.694 177.425 252.439 177.371 252.193L175.898 245.416C175.837 245.14 175.706 244.883 175.516 244.668C175.326 244.453 175.083 244.288 174.811 244.188C174.613 244.113 174.403 244.074 174.191 244.074H82.2226C82.0105 244.074 81.8003 244.113 81.6029 244.188C81.3302 244.288 81.0879 244.453 80.8979 244.668C80.708 244.883 80.5765 245.14 80.5155 245.416L79.0422 252.193C78.9898 252.439 78.9946 252.693 79.0563 252.937C79.118 253.181 79.235 253.409 79.3988 253.603Z" fill="#2F2E41"/>
<path d="M206.956 116.422H57.6863C57.5311 116.419 57.3835 116.357 57.275 116.249C57.1665 116.142 57.1057 115.997 57.1057 115.847C57.1057 115.697 57.1665 115.552 57.275 115.445C57.3835 115.337 57.5311 115.275 57.6863 115.272H206.956C207.112 115.275 207.259 115.337 207.368 115.445C207.476 115.552 207.537 115.697 207.537 115.847C207.537 115.997 207.476 116.142 207.368 116.249C207.259 116.357 207.112 116.419 206.956 116.422Z" fill="#3F3D56"/>
<path d="M67.8473 112.337C69.7686 112.337 71.3261 110.795 71.3261 108.893C71.3261 106.991 69.7686 105.449 67.8473 105.449C65.926 105.449 64.3685 106.991 64.3685 108.893C64.3685 110.795 65.926 112.337 67.8473 112.337Z" fill="#3F3D56"/>
<path d="M79.865 112.337C81.7863 112.337 83.3438 110.795 83.3438 108.893C83.3438 106.991 81.7863 105.449 79.865 105.449C77.9437 105.449 76.3862 106.991 76.3862 108.893C76.3862 110.795 77.9437 112.337 79.865 112.337Z" fill="#3F3D56"/>
<path d="M91.8827 112.337C93.804 112.337 95.3615 110.795 95.3615 108.893C95.3615 106.991 93.804 105.449 91.8827 105.449C89.9614 105.449 88.4039 106.991 88.4039 108.893C88.4039 110.795 89.9614 112.337 91.8827 112.337Z" fill="#3F3D56"/>
<path d="M199.72 106.301H191.184C191.015 106.304 190.855 106.372 190.737 106.489C190.619 106.606 190.553 106.763 190.553 106.926C190.553 107.09 190.619 107.247 190.737 107.363C190.855 107.48 191.015 107.548 191.184 107.552H199.72C199.89 107.549 200.052 107.483 200.171 107.365C200.29 107.248 200.357 107.091 200.357 106.926C200.357 106.762 200.29 106.604 200.171 106.487C200.052 106.37 199.89 106.303 199.72 106.301Z" fill="#3F3D56"/>
<path d="M199.72 108.65H191.184C191.015 108.654 190.855 108.721 190.736 108.838C190.618 108.955 190.552 109.112 190.552 109.276C190.552 109.439 190.618 109.596 190.736 109.713C190.855 109.83 191.015 109.898 191.184 109.901H199.72C199.89 109.899 200.052 109.833 200.172 109.716C200.291 109.598 200.358 109.44 200.358 109.276C200.358 109.111 200.291 108.953 200.172 108.836C200.052 108.719 199.89 108.652 199.72 108.65Z" fill="#3F3D56"/>
<path d="M199.72 111H191.184C191.015 111.004 190.855 111.071 190.737 111.188C190.619 111.305 190.553 111.462 190.553 111.625C190.553 111.789 190.619 111.946 190.737 112.063C190.855 112.18 191.015 112.247 191.184 112.251H199.72C199.89 112.249 200.052 112.182 200.171 112.065C200.29 111.948 200.357 111.79 200.357 111.625C200.357 111.461 200.29 111.303 200.171 111.186C200.052 111.069 199.89 111.002 199.72 111Z" fill="#3F3D56"/>
<path d="M405.498 249.742C405.756 250.468 406.244 251.097 406.894 251.537C407.543 251.978 408.32 252.208 409.113 252.194L424.601 251.808C425.4 251.793 426.172 251.528 426.802 251.053C427.432 250.578 427.887 249.918 428.098 249.171L430.289 226.475C431.067 226.816 431.913 226.985 432.767 226.968C433.508 226.95 434.239 226.791 434.917 226.499C435.595 226.208 436.207 225.79 436.718 225.269C437.229 224.749 437.63 224.136 437.896 223.465C438.163 222.795 438.29 222.08 438.272 221.362C438.253 220.644 438.089 219.937 437.788 219.28C437.487 218.624 437.055 218.031 436.518 217.536C435.98 217.041 435.347 216.653 434.655 216.395C433.963 216.137 433.225 216.013 432.483 216.031C432.142 216.03 431.802 216.065 431.468 216.134C431.106 215.753 430.665 215.451 430.174 215.246C429.683 215.041 429.153 214.938 428.619 214.943L404.795 215.539C404.597 215.546 404.401 215.569 404.207 215.609C403.685 215.704 403.189 215.905 402.754 216.201C402.319 216.496 401.954 216.878 401.684 217.321C401.414 217.765 401.245 218.259 401.189 218.771C401.133 219.283 401.19 219.8 401.358 220.289L405.498 249.742ZM430.739 224.934L432.298 219.525C432.476 218.901 432.48 218.241 432.31 217.615C432.386 217.614 432.453 217.58 432.528 217.58C433.598 217.558 434.632 217.948 435.405 218.664C436.178 219.381 436.626 220.364 436.651 221.4C436.676 222.435 436.276 223.438 435.539 224.189C434.801 224.939 433.787 225.375 432.717 225.403C432.026 225.423 431.342 225.261 430.739 224.934Z" fill="#676DFF"/>
<path d="M404.207 215.609C404.715 218.42 410.421 220.396 417.283 220.052C423.593 219.771 428.752 217.625 429.697 215.082C429.347 214.982 428.984 214.935 428.619 214.943L404.795 215.539C404.597 215.546 404.401 215.569 404.207 215.609Z" fill="#3F3D56"/>
<path d="M418.541 237.27C418.572 237.262 418.602 237.25 418.629 237.233L421.992 235.1C422.033 235.075 422.066 235.04 422.089 234.998C422.113 234.957 422.125 234.911 422.125 234.864C422.125 234.817 422.113 234.771 422.09 234.729C422.066 234.688 422.033 234.653 421.992 234.627L418.496 232.409C418.464 232.389 418.428 232.375 418.391 232.368C418.353 232.361 418.314 232.361 418.276 232.368C418.239 232.376 418.203 232.39 418.171 232.411C418.139 232.432 418.112 232.459 418.091 232.49C418.07 232.521 418.055 232.556 418.048 232.593C418.041 232.63 418.041 232.667 418.049 232.704C418.057 232.74 418.073 232.775 418.094 232.805C418.116 232.836 418.144 232.862 418.176 232.883L421.299 234.863L418.309 236.759C418.251 236.796 418.208 236.851 418.189 236.915C418.169 236.979 418.173 237.048 418.201 237.11C418.229 237.171 418.278 237.221 418.34 237.25C418.403 237.279 418.473 237.287 418.541 237.27H418.541Z" fill="#6C63FF"/>
<path d="M413.228 237.507C413.285 237.494 413.335 237.464 413.374 237.422C413.413 237.38 413.438 237.327 413.446 237.271C413.454 237.216 413.444 237.159 413.419 237.108C413.393 237.057 413.352 237.015 413.302 236.987L410.201 235.266L413.198 233.11C413.229 233.088 413.255 233.06 413.275 233.029C413.294 232.997 413.307 232.961 413.313 232.925C413.318 232.888 413.316 232.85 413.307 232.814C413.298 232.778 413.281 232.744 413.258 232.715C413.235 232.685 413.207 232.66 413.174 232.641C413.141 232.622 413.104 232.609 413.066 232.604C413.029 232.598 412.99 232.6 412.953 232.609C412.915 232.618 412.88 232.634 412.85 232.656L409.495 235.07C409.456 235.098 409.425 235.135 409.404 235.177C409.383 235.22 409.374 235.267 409.377 235.314C409.38 235.361 409.395 235.406 409.42 235.446C409.446 235.486 409.481 235.519 409.523 235.542L413.011 237.479C413.077 237.515 413.155 237.525 413.228 237.507Z" fill="#6C63FF"/>
<path d="M418.206 239.138C418.234 239.132 418.261 239.121 418.286 239.106C418.319 239.086 418.347 239.061 418.37 239.031C418.393 239.001 418.409 238.967 418.418 238.931C418.427 238.895 418.429 238.857 418.423 238.82C418.417 238.784 418.404 238.748 418.384 238.717L413.616 231.125C413.576 231.061 413.511 231.015 413.435 230.998C413.36 230.98 413.281 230.992 413.214 231.031C413.148 231.07 413.101 231.133 413.082 231.206C413.064 231.279 413.076 231.356 413.116 231.42L417.884 239.011C417.917 239.063 417.966 239.103 418.024 239.126C418.081 239.149 418.145 239.153 418.206 239.138Z" fill="#6C63FF"/>
<path d="M150.157 147.675H124.321C123.267 147.675 122.413 148.502 122.413 149.523V151.967C122.413 152.988 123.267 153.815 124.321 153.815H150.157C151.21 153.815 152.065 152.988 152.065 151.967V149.523C152.065 148.502 151.21 147.675 150.157 147.675Z" fill="#6C63FF"/>
<path d="M165.216 159.956H109.262C108.208 159.956 107.354 160.783 107.354 161.804V164.248C107.354 165.269 108.208 166.096 109.262 166.096H165.216C166.27 166.096 167.124 165.269 167.124 164.248V161.804C167.124 160.783 166.27 159.956 165.216 159.956Z" fill="#E6E6E6"/>
<path d="M165.216 172.237H109.262C108.208 172.237 107.354 173.065 107.354 174.085V176.53C107.354 177.55 108.208 178.378 109.262 178.378H165.216C166.27 178.378 167.124 177.55 167.124 176.53V174.085C167.124 173.065 166.27 172.237 165.216 172.237Z" fill="#E6E6E6"/>
<path d="M169.959 213.362L170.086 213.75L170.092 213.762L173.907 224.994L178.296 237.938L186.552 262.261L186.632 266.04V266.053L187.246 296.448L185.545 300.568L187.459 307.324C187.459 307.324 186.579 297.112 181.857 302.977C179.183 306.309 176.055 309.72 173.487 312.917C177.229 314.383 181.03 315.709 184.892 316.895C185.725 317.154 186.566 317.399 187.406 317.645C187.586 317.696 187.766 317.748 187.946 317.8C200.746 321.466 213.98 323.526 227.322 323.929C228.015 323.948 228.695 323.961 229.356 323.974C229.589 323.981 229.816 323.987 230.043 323.987C230.79 323.994 231.53 324 232.277 324C233.784 324 235.285 323.979 236.779 323.935C247.836 323.634 258.829 322.194 269.571 319.64C269.498 315.345 269.298 310.327 269.011 304.966C268.878 302.337 265.883 299.489 265.703 296.738C265.577 294.671 268.264 292.727 268.124 290.628C267.217 277.704 266.083 282.665 265.243 273.513C265.156 272.615 265.076 271.756 265.003 270.936C264.463 265.058 264.089 261.383 264.089 261.383L267.677 239.481L273.313 205.095L272.879 204.404L272.393 204.171L242.668 189.923L241.054 185.919C240.583 184.765 239.767 183.774 238.711 183.073C237.654 182.372 236.405 181.993 235.125 181.985L215.544 181.908C214.527 181.903 213.525 182.134 212.619 182.58C211.713 183.026 210.93 183.674 210.335 184.472L205.033 191.583L169.959 213.362Z" fill="#3F3D56"/>
<path d="M191.067 256.849L186.632 266.04L183.604 272.318L178.396 298.728L175.788 301.408L173.554 291.919L150.17 296.947C149.403 292.82 149.965 297.087 149.491 292.56C149.624 292.43 149.764 292.301 149.904 292.172C150.278 291.836 150.591 291.52 150.585 291.216C150.318 275.599 151.118 249.021 157.801 232.919C158.848 230.29 160.228 227.797 161.909 225.498C162.043 225.324 162.169 225.149 162.296 224.975C165.377 220.796 167.325 216.682 170.086 213.756V213.75C170.103 213.736 170.119 213.721 170.132 213.704C170.142 213.699 170.151 213.693 170.159 213.685L189.127 203.945L189.94 226.086L190.52 242L191.067 256.849Z" fill="#3F3D56"/>
<path d="M259.46 259.459L265 270.939L266.934 274.936L272.141 301.344L274.74 304.018L276.98 294.531L278.032 294.322L297.008 290.516L302.539 307.528C303.786 305.516 304.277 303.15 303.93 300.828C303.582 298.506 302.417 296.372 300.633 294.786C300.255 294.455 299.94 294.132 299.949 293.828C300.264 275.459 299.104 241.918 288.626 228.114C285.299 223.733 283.302 219.369 280.397 216.321C280.388 216.312 280.388 216.303 280.379 216.303L273.31 205.094L272.879 204.406L272.393 204.171L259.46 259.459Z" fill="#3F3D56"/>
<path d="M225.9 176.511C240.287 176.511 251.95 165.216 251.95 151.283C251.95 137.35 240.287 126.055 225.9 126.055C211.513 126.055 199.849 137.35 199.849 151.283C199.849 165.216 211.513 176.511 225.9 176.511Z" fill="#FFB6B6"/>
<path d="M261.11 133.662C260.908 133.453 260.664 133.285 260.394 133.17C260.124 133.054 259.832 132.992 259.537 132.988L259.929 131.935C260.057 131.603 260.091 131.244 260.029 130.896C259.966 130.547 259.809 130.22 259.574 129.949C259.338 129.679 259.032 129.473 258.688 129.355C258.344 129.236 257.973 129.208 257.614 129.274L256.187 129.54L256.321 128.617C256.373 128.273 256.331 127.922 256.2 127.599C256.07 127.276 255.854 126.991 255.575 126.773C255.296 126.554 254.963 126.41 254.609 126.354C254.255 126.299 253.892 126.333 253.556 126.454C253.25 126.571 252.922 126.619 252.594 126.597C252.266 126.574 251.948 126.481 251.662 126.324C251.375 126.172 251.126 125.96 250.932 125.705C250.738 125.45 250.604 125.157 250.539 124.846L250.043 122.525L249.99 122.4C247.57 118.494 242.916 115.651 237.222 114.61C232.153 113.675 226.955 114.151 221.945 114.598C219.957 114.78 217.712 114.983 215.842 116.093C214.251 117.044 212.907 118.947 213.182 120.866C208.241 119.4 202.945 122.327 200.32 126.018C197.209 130.412 196.701 135.915 196.619 140.218C196.397 150.398 198.566 158.726 203.05 164.977C203.377 165.43 203.459 166.375 204.108 166.692L203.974 166.483C204.699 166.834 205.435 167.4 205.16 168.006C204.371 169.75 209.615 173.605 213.31 174.879C220.051 177.206 229.013 177.008 235.316 176.17L235.538 174.726C237.812 174.426 239.414 173.855 239.864 172.96C240.659 172.303 241.337 171.714 241.928 171.171L241.934 171.165C241.945 171.154 241.969 171.137 241.98 171.126C244.828 168.482 245.488 166.976 245.786 164.683C246.073 162.435 245.564 160.153 245.044 158.098C256 159.74 240.729 146.797 250.937 144.294C251.054 144.259 251.173 144.231 251.294 144.209C251.592 144.142 251.89 144.074 252.176 143.994C253.557 143.631 254.88 143.084 256.105 142.369C258.958 140.688 259.899 138.457 261.373 135.943C261.585 135.585 261.674 135.171 261.627 134.761C261.58 134.35 261.399 133.965 261.11 133.662Z" fill="#2F2E41"/>
<path d="M318.035 261.256C318.029 262.246 318.018 263.633 317.971 265.349C317.965 265.587 317.959 265.83 317.953 266.079C317.877 269.233 317.801 271.877 317.679 274.815C317.673 275.019 317.667 275.217 317.655 275.421C317.491 279.52 317.234 284.293 316.79 291.852C315.966 305.814 314.527 293.771 313.083 298.669C313.013 298.912 312.937 299.201 312.867 299.541C312.648 300.773 312.279 301.976 311.768 303.124C311.002 303.566 310.213 303.991 309.435 304.415C307.219 305.61 304.969 306.759 302.7 307.852C301.426 308.464 300.146 309.064 298.859 309.641C298.655 309.732 298.456 309.822 298.257 309.907C291.671 312.858 284.883 315.366 277.941 317.415C276.585 317.811 275.234 318.196 273.866 318.553C272.44 318.938 271.013 319.3 269.569 319.64C258.827 322.194 247.834 323.634 236.777 323.937C235.286 323.982 233.784 323.999 232.276 323.999C231.527 323.999 230.791 323.994 230.042 323.988C229.814 323.988 229.586 323.982 229.358 323.977C228.698 323.96 228.014 323.948 227.324 323.931C213.982 323.528 200.749 321.468 187.949 317.8L187.405 317.647C186.563 317.398 185.727 317.154 184.891 316.894C181.033 315.711 177.231 314.386 173.485 312.919C170.626 311.804 167.8 310.607 165.008 309.33C164.982 309.323 164.958 309.312 164.938 309.296C164.353 309.035 163.763 308.764 163.178 308.486C163.102 308.447 163.02 308.407 162.938 308.367C160.758 307.337 158.6 306.257 156.466 305.129C154.672 301.137 152.146 300.373 150.579 296.862C150.123 295.82 149.794 294.729 149.597 293.613C149.597 293.601 149.591 293.59 149.591 293.573C149.755 295.679 148.895 289.836 149.585 293.55C149.579 293.482 149.574 293.409 149.568 293.324C149.55 293.12 149.527 292.871 149.492 292.56C147.486 273.598 147.615 251.914 146.744 234.045C146.685 232.89 146.625 231.784 146.563 230.727C146.545 230.376 146.522 230.031 146.498 229.691C146.539 229.589 146.586 229.482 146.639 229.38C146.65 229.35 146.664 229.322 146.68 229.295C146.697 229.26 146.716 229.226 146.738 229.193C146.75 229.176 146.767 229.153 146.779 229.136C146.788 229.117 146.797 229.098 146.808 229.08C146.861 229 146.919 228.915 146.984 228.836C147.013 228.802 147.036 228.774 147.066 228.746C147.086 228.717 147.109 228.69 147.136 228.666C147.154 228.639 147.175 228.614 147.2 228.593C147.223 228.57 147.247 228.542 147.276 228.513C147.288 228.496 147.304 228.48 147.323 228.468C147.369 228.417 147.42 228.369 147.475 228.327C147.683 228.141 147.906 227.97 148.141 227.817C148.223 227.766 148.311 227.715 148.393 227.659C148.982 227.317 149.602 227.029 150.246 226.798C150.468 226.719 150.69 226.645 150.93 226.566C151.018 226.543 151.099 226.515 151.187 226.487C151.316 226.447 151.444 226.407 151.579 226.379C152.245 226.186 152.964 226.022 153.742 225.869C153.836 225.852 153.935 225.835 154.034 225.813C154.175 225.784 154.321 225.762 154.467 225.739C154.666 225.705 154.87 225.671 155.075 225.637C156.811 225.371 158.782 225.173 160.956 225.043C161.161 225.031 161.366 225.02 161.57 225.009C161.81 224.998 162.05 224.986 162.295 224.975C162.5 224.964 162.71 224.958 162.921 224.952C163.125 224.941 163.336 224.935 163.552 224.93C164.143 224.913 164.751 224.896 165.37 224.884C167.136 224.85 168.995 224.862 170.948 224.901C171.854 224.924 172.778 224.947 173.725 224.986C173.789 224.986 173.847 224.992 173.906 224.992C174.73 225.02 175.56 225.054 176.414 225.099C177.01 225.128 177.613 225.156 178.215 225.19C178.782 225.224 179.355 225.258 179.933 225.298C180.384 225.32 180.834 225.354 181.29 225.382C181.676 225.411 182.062 225.439 182.447 225.462L182.974 225.496C183.26 225.518 183.547 225.535 183.839 225.564C184.482 225.615 185.125 225.666 185.78 225.717C186.429 225.773 187.089 225.83 187.75 225.886C188.411 225.943 189.077 226.005 189.744 226.068C189.814 226.073 189.878 226.079 189.942 226.085C190.55 226.147 191.158 226.203 191.772 226.266C191.913 226.277 192.059 226.288 192.199 226.305C192.784 226.362 193.381 226.429 193.972 226.49C194.153 226.509 194.333 226.527 194.515 226.546C194.978 226.595 195.434 226.637 195.9 226.69C196.514 226.758 197.139 226.821 197.747 226.9C198.221 226.951 198.694 227.002 199.168 227.058C199.91 227.143 200.664 227.234 201.419 227.33C201.705 227.364 201.992 227.398 202.278 227.438C204.43 227.698 206.604 227.987 208.814 228.287C212.164 228.746 215.567 229.244 218.993 229.782C222.424 230.32 225.876 230.888 229.347 231.486C230.223 231.639 231.1 231.792 231.983 231.95C232.381 232.024 232.778 232.097 233.176 232.171C233.854 232.29 234.532 232.414 235.21 232.539C235.889 232.664 236.567 232.788 237.245 232.918C238.052 233.071 238.864 233.224 239.671 233.377C244.985 234.396 250.27 235.483 255.427 236.621C256.275 236.808 257.122 237 257.964 237.187C259.648 237.567 261.316 237.952 262.969 238.342C263.425 238.444 263.875 238.552 264.325 238.659C265.448 238.931 266.57 239.203 267.675 239.48L267.868 239.531C268.681 239.724 269.476 239.922 270.271 240.126C272.147 240.601 273.993 241.083 275.807 241.57C277.012 241.892 278.202 242.219 279.379 242.549C281.139 243.042 282.864 243.54 284.542 244.044C284.957 244.168 285.372 244.293 285.781 244.412C287.009 244.78 288.219 245.153 289.394 245.527C290.329 245.822 291.241 246.122 292.142 246.422C293.042 246.722 293.925 247.022 294.79 247.322C295.346 247.514 295.895 247.718 296.445 247.911C297.234 248.194 298.012 248.477 298.772 248.76C299.005 248.845 299.233 248.935 299.461 249.02C299.608 249.083 299.748 249.134 299.888 249.19C300.163 249.298 300.444 249.4 300.713 249.507C300.987 249.609 301.256 249.717 301.525 249.83C301.788 249.932 302.057 250.04 302.314 250.147C302.577 250.249 302.835 250.357 303.092 250.47C303.308 250.555 303.519 250.645 303.723 250.736C304.138 250.911 304.554 251.087 304.957 251.268C305.156 251.359 305.354 251.444 305.553 251.534L306.009 251.738C306.074 251.772 306.138 251.8 306.202 251.829C306.348 251.897 306.5 251.97 306.647 252.038C306.986 252.191 307.319 252.355 307.646 252.508C308.085 252.723 308.511 252.938 308.921 253.148C309.336 253.363 309.739 253.578 310.125 253.788C310.189 253.822 310.248 253.856 310.312 253.89C310.4 253.935 310.488 253.986 310.575 254.031C310.873 254.195 311.16 254.365 311.446 254.529C312.008 254.863 312.54 255.192 313.037 255.52C313.148 255.594 313.253 255.667 313.364 255.735C313.732 255.99 314.083 256.239 314.41 256.494C314.41 256.5 314.41 256.5 314.416 256.5C314.527 256.579 314.633 256.664 314.738 256.743C314.826 256.822 314.919 256.89 315.007 256.97C315.311 257.224 315.591 257.468 315.849 257.717C315.935 257.794 316.017 257.875 316.094 257.96C316.128 257.988 316.16 258.018 316.188 258.051C316.305 258.164 316.41 258.277 316.509 258.391C316.525 258.406 316.538 258.423 316.55 258.442C316.69 258.6 316.819 258.759 316.942 258.917C317 258.996 317.065 259.076 317.117 259.155C317.187 259.251 317.258 259.353 317.316 259.449C317.369 259.529 317.415 259.614 317.462 259.693C317.586 259.897 317.692 260.111 317.778 260.333C317.844 260.483 317.896 260.638 317.936 260.797C317.98 260.947 318.013 261.101 318.035 261.256Z" fill="#2847FF"/>
<path opacity="0.2" d="M318.035 261.256C318.029 262.246 318.018 263.633 317.971 265.349C317.965 265.587 317.953 265.83 317.947 266.079C317.889 268.486 317.801 271.458 317.679 274.816C317.673 275.019 317.667 275.217 317.655 275.421C317.491 279.52 317.234 284.293 316.79 291.852C315.966 305.814 314.527 293.771 313.083 298.669C309.073 296.279 304.676 293.777 299.976 291.206C299.128 290.742 298.273 290.276 297.409 289.808C288.008 284.729 277.508 279.407 266.547 274.136C266.114 273.927 265.676 273.717 265.243 273.513C240.133 261.493 212.725 249.802 190.521 242C186.236 240.494 182.143 239.135 178.296 237.94C170.193 235.432 163.19 233.677 157.799 232.918C152.187 232.126 148.311 232.409 146.744 234.045C146.685 232.89 146.625 231.784 146.563 230.727C146.539 230.376 146.516 230.031 146.492 229.691C146.529 229.598 146.575 229.509 146.621 229.419C146.627 229.406 146.632 229.393 146.639 229.38C146.65 229.35 146.664 229.322 146.68 229.295C146.697 229.26 146.716 229.226 146.738 229.193C146.757 229.153 146.781 229.115 146.808 229.08C146.861 229 146.919 228.915 146.984 228.836C147.031 228.777 147.082 228.72 147.136 228.666C147.154 228.639 147.175 228.614 147.2 228.593C147.223 228.57 147.247 228.542 147.276 228.513C147.288 228.496 147.304 228.48 147.323 228.468C147.369 228.417 147.42 228.369 147.475 228.327C147.683 228.141 147.906 227.97 148.141 227.817C148.223 227.766 148.311 227.715 148.393 227.658C148.982 227.317 149.602 227.029 150.246 226.798C150.468 226.719 150.69 226.645 150.93 226.566C151.018 226.543 151.099 226.515 151.187 226.487C151.316 226.447 151.444 226.407 151.579 226.379C152.245 226.186 152.964 226.022 153.742 225.869C153.976 225.824 154.221 225.779 154.467 225.739C154.666 225.705 154.87 225.671 155.075 225.637C156.811 225.371 158.781 225.173 160.956 225.043C161.161 225.031 161.366 225.02 161.57 225.009C161.81 224.997 162.05 224.986 162.295 224.975C162.5 224.963 162.71 224.958 162.921 224.952C163.125 224.941 163.336 224.935 163.552 224.93C164.143 224.913 164.751 224.896 165.37 224.884C167.136 224.856 168.995 224.867 170.948 224.907C171.854 224.924 172.778 224.952 173.725 224.992C173.783 224.992 173.847 224.997 173.906 224.997C174.73 225.02 175.566 225.06 176.414 225.099C177.01 225.128 177.612 225.156 178.215 225.19C178.782 225.224 179.355 225.258 179.933 225.298C180.384 225.32 180.834 225.354 181.29 225.382C181.676 225.411 182.061 225.439 182.447 225.462C182.909 225.496 183.371 225.53 183.839 225.564C184.482 225.615 185.125 225.666 185.78 225.716C186.429 225.773 187.089 225.83 187.75 225.886C188.411 225.943 189.077 226.005 189.744 226.068C189.814 226.073 189.878 226.079 189.942 226.085C190.55 226.147 191.158 226.203 191.772 226.266C195.175 226.6 198.677 226.99 202.278 227.438C204.429 227.704 206.608 227.989 208.814 228.293C212.164 228.751 215.567 229.249 218.993 229.782C222.424 230.32 225.876 230.888 229.346 231.486C230.223 231.639 231.1 231.792 231.983 231.95C233.059 232.143 234.135 232.339 235.21 232.539C235.889 232.663 236.567 232.788 237.245 232.918C238.052 233.071 238.864 233.224 239.671 233.377C244.985 234.396 250.27 235.483 255.427 236.621C256.275 236.808 257.122 237 257.964 237.187C259.648 237.567 261.316 237.952 262.969 238.342C263.425 238.45 263.875 238.557 264.325 238.665C265.453 238.937 266.57 239.209 267.675 239.48V239.486C267.739 239.497 267.804 239.514 267.868 239.531C268.675 239.729 269.476 239.928 270.271 240.131C272.147 240.607 273.993 241.086 275.807 241.569C277.012 241.898 278.204 242.221 279.379 242.549C281.139 243.047 282.864 243.545 284.542 244.044C284.957 244.168 285.372 244.293 285.781 244.412C287.009 244.785 288.213 245.157 289.394 245.527C290.329 245.821 291.241 246.122 292.142 246.422C293.042 246.722 293.925 247.022 294.79 247.322C295.351 247.514 295.901 247.713 296.445 247.905C297.24 248.188 298.011 248.471 298.771 248.76C299.005 248.845 299.233 248.935 299.461 249.02C299.888 249.179 300.303 249.343 300.712 249.507C300.987 249.609 301.256 249.717 301.525 249.83C301.788 249.932 302.057 250.04 302.314 250.147C302.577 250.249 302.835 250.357 303.092 250.47C303.308 250.555 303.519 250.645 303.723 250.736C304.138 250.911 304.554 251.087 304.957 251.268C305.156 251.359 305.354 251.444 305.553 251.534L306.009 251.738C306.074 251.772 306.138 251.8 306.202 251.829C306.699 252.055 307.178 252.282 307.646 252.508C308.085 252.723 308.511 252.938 308.921 253.148C309.406 253.397 309.868 253.64 310.312 253.89C310.4 253.935 310.488 253.986 310.575 254.031C310.873 254.195 311.16 254.365 311.446 254.529C312.008 254.863 312.54 255.192 313.037 255.52C313.528 255.848 313.984 256.171 314.41 256.494C314.41 256.5 314.41 256.5 314.416 256.5C314.621 256.658 314.82 256.817 315.007 256.97C315.311 257.224 315.591 257.468 315.849 257.717C315.935 257.794 316.017 257.875 316.094 257.96C316.128 257.988 316.16 258.018 316.188 258.051C316.31 258.181 316.433 258.311 316.55 258.442C316.691 258.6 316.819 258.759 316.942 258.917C317 258.996 317.065 259.076 317.117 259.155C317.187 259.251 317.258 259.353 317.316 259.449C317.369 259.529 317.415 259.614 317.462 259.693C317.586 259.897 317.692 260.111 317.778 260.333C317.842 260.484 317.895 260.639 317.936 260.797C317.98 260.947 318.013 261.101 318.035 261.256Z" fill="black"/>
</g>
<defs>
<clipPath id="clip0_129_34">
<rect width="460" height="324" fill="white"/>
</clipPath>
</defs>
</svg>
