<svg width="58" height="59" viewBox="0 0 58 59" fill="none" xmlns="http://www.w3.org/2000/svg">
<path d="M9.94 58.58C8.38 58.58 6.88 58 5.44 56.84C4 55.72 2.76 53.86 1.72 51.26C1.36 50.34 1.1 49.38 0.94 48.38C0.78 47.38 0.7 46.38 0.7 45.38C0.7 43.74 0.88 42.1 1.24 40.46C1.6 38.82 2.06 37.28 2.62 35.84C3.06 34.8 3.68 33.64 4.48 32.36C5.28 31.04 6.04 29.96 6.76 29.12C7 28.88 7.3 28.62 7.66 28.34C8.02 28.02 8.26 27.86 8.38 27.86C8.42 27.86 8.44 27.88 8.44 27.92C8.44 28.04 8.1 28.52 7.42 29.36C5.78 31.36 4.56 33.64 3.76 36.2C3 38.72 2.62 41.22 2.62 43.7C2.62 45.18 2.74 46.6 2.98 47.96C3.26 49.32 3.62 50.58 4.06 51.74C4.9 53.86 5.8 55.38 6.76 56.3C7.76 57.22 8.8 57.68 9.88 57.68C11.24 57.68 12.62 57.1 14.02 55.94C15.42 54.78 16.78 53.24 18.1 51.32C19.46 49.4 20.72 47.32 21.88 45.08C23.04 42.84 24.04 40.62 24.88 38.42C25.76 36.18 26.4 34.18 26.8 32.42L27.7 28.7C27.5 28.66 27.4 28.58 27.4 28.46C27.4 28.26 27.56 28.06 27.88 27.86C28.36 25.7 28.72 23.58 28.96 21.5C29.24 19.42 29.38 17.5 29.38 15.74C29.38 13.82 29.2 12.14 28.84 10.7C28.52 9.22 27.98 8.1 27.22 7.34C26.9 7.02 26.54 6.86 26.14 6.86C25.86 6.86 25.56 6.94 25.24 7.1C24.96 7.26 24.68 7.46 24.4 7.7C24.12 7.98 24.08 7.92 24.28 7.52C24.52 7.08 24.9 6.6 25.42 6.08C25.98 5.56 26.58 5.3 27.22 5.3C27.58 5.3 27.94 5.42 28.3 5.66C29.58 6.54 30.48 7.88 31 9.68C31.56 11.48 31.84 13.56 31.84 15.92C31.84 17.48 31.74 19.12 31.54 20.84C31.34 22.56 31.06 24.32 30.7 26.12C30.78 26.2 30.84 26.3 30.88 26.42C30.96 26.54 31.04 26.66 31.12 26.78C35.96 25.22 39.84 23.56 42.76 21.8C45.72 20.04 47.86 18.26 49.18 16.46C50.54 14.66 51.22 12.94 51.22 11.3C51.22 9.58 50.58 8.04 49.3 6.68C48.02 5.32 46.26 4.24 44.02 3.44C41.78 2.64 39.2 2.24 36.28 2.24C33.56 2.24 30.74 2.62 27.82 3.38C25.18 4.1 22.66 5.16 20.26 6.56C17.9 7.92 15.78 9.44 13.9 11.12C12.06 12.8 10.56 14.46 9.4 16.1C8.28 17.74 7.64 19.18 7.48 20.42C7.4 21.3 7.24 21.94 7 22.34C6.8 22.74 6.6 22.94 6.4 22.94C5.8 22.94 5.5 22.22 5.5 20.78C5.5 20.58 5.5 20.38 5.5 20.18C5.54 19.98 5.58 19.78 5.62 19.58C5.86 17.78 6.66 15.98 8.02 14.18C9.42 12.38 11.18 10.7 13.3 9.14C15.46 7.54 17.82 6.12 20.38 4.88C22.94 3.64 25.5 2.68 28.06 2C29.7 1.56 31.3 1.24 32.86 1.04C34.46 0.839999 36 0.739999 37.48 0.739999C40.72 0.739999 43.58 1.18 46.06 2.06C48.54 2.94 50.48 4.14 51.88 5.66C53.28 7.14 53.98 8.84 53.98 10.76C53.98 12.36 53.38 14.06 52.18 15.86C50.98 17.66 49.06 19.46 46.42 21.26C43.78 23.06 40.3 24.8 35.98 26.48C35.1 26.8 34.3 27.08 33.58 27.32C32.9 27.56 32.28 27.78 31.72 27.98C32.52 29.42 33.56 31.1 34.84 33.02C36.12 34.94 37.48 36.88 38.92 38.84C40.4 40.8 41.86 42.58 43.3 44.18C44.74 45.78 46.04 47 47.2 47.84C47.92 48.36 48.76 48.88 49.72 49.4C50.72 49.96 51.68 50.24 52.6 50.24C53.52 50.24 54.22 49.98 54.7 49.46C55.18 48.98 55.52 48.36 55.72 47.6C55.92 46.84 56.02 46.08 56.02 45.32C56.02 42.72 55.26 40.32 53.74 38.12C53.62 37.92 53.56 37.8 53.56 37.76C53.56 37.64 53.62 37.58 53.74 37.58C53.98 37.58 54.22 37.74 54.46 38.06C55.26 39.02 55.9 40.14 56.38 41.42C56.86 42.7 57.1 43.98 57.1 45.26C57.1 47.22 56.52 48.86 55.36 50.18C54.24 51.54 52.7 52.22 50.74 52.22C48.7 52.22 46.8 51.66 45.04 50.54C43.32 49.42 41.72 47.94 40.24 46.1C38.76 44.26 37.42 42.28 36.22 40.16C35.02 38 33.96 35.88 33.04 33.8C32.12 31.72 31.32 29.88 30.64 28.28L30.22 28.4C29.58 31.16 28.84 33.84 28 36.44C27.2 39.04 26.36 41.4 25.48 43.52C24.4 46.16 23 48.62 21.28 50.9C19.6 53.22 17.76 55.08 15.76 56.48C13.8 57.88 11.86 58.58 9.94 58.58Z" fill="#1C39F3"/>
</svg>
